<mxfile host="app.diagrams.net" modified="2023-08-23T11:51:10.297Z" agent="Mozilla/5.0 (X11; Linux x86_64; rv:109.0) Gecko/20100101 Firefox/113.0" etag="f7fx3ejX0SSEqH5MwAmc" version="21.6.9" type="device">
  <diagram name="Page-1" id="L9Q5bj5fLcDvwvkhY-lI">
    <mxGraphModel dx="1434" dy="649" grid="1" gridSize="10" guides="1" tooltips="1" connect="1" arrows="1" fold="1" page="1" pageScale="1" pageWidth="850" pageHeight="1100" math="0" shadow="0">
      <root>
        <mxCell id="0" />
        <mxCell id="1" parent="0" />
        <mxCell id="Yo78GI136DEajXu1sbwt-1" value="&lt;b&gt;Template&lt;br&gt;&lt;/b&gt;" style="shape=card;whiteSpace=wrap;html=1;fillColor=#dae8fc;strokeColor=#6c8ebf;" vertex="1" parent="1">
          <mxGeometry x="140" y="165" width="80" height="100" as="geometry" />
        </mxCell>
        <mxCell id="Yo78GI136DEajXu1sbwt-2" value="&lt;b&gt;Task 1&lt;br&gt;&lt;/b&gt;" style="shape=card;whiteSpace=wrap;html=1;fillColor=#fff2cc;strokeColor=#d6b656;" vertex="1" parent="1">
          <mxGeometry x="260" y="165" width="80" height="100" as="geometry" />
        </mxCell>
        <mxCell id="Yo78GI136DEajXu1sbwt-3" value="&lt;b&gt;Task N&lt;br&gt;&lt;/b&gt;" style="shape=card;whiteSpace=wrap;html=1;fillColor=#fff2cc;strokeColor=#d6b656;" vertex="1" parent="1">
          <mxGeometry x="425" y="165" width="80" height="100" as="geometry" />
        </mxCell>
        <mxCell id="Yo78GI136DEajXu1sbwt-4" value="Worksheet" style="swimlane;whiteSpace=wrap;html=1;fillColor=#ffe6cc;strokeColor=#d79b00;" vertex="1" parent="1">
          <mxGeometry x="110" y="110" width="420" height="190" as="geometry" />
        </mxCell>
        <mxCell id="Yo78GI136DEajXu1sbwt-5" value="..." style="text;html=1;strokeColor=none;fillColor=none;align=center;verticalAlign=middle;whiteSpace=wrap;rounded=0;fontStyle=1;fontSize=20;" vertex="1" parent="Yo78GI136DEajXu1sbwt-4">
          <mxGeometry x="244" y="90" width="60" height="30" as="geometry" />
        </mxCell>
      </root>
    </mxGraphModel>
  </diagram>
</mxfile>
